# xmcd CD database file
#
# Track frame offsets:
#	150
#	23530
#	44152
#	62692
#	82615
#	107362
#	125302
#	146247
#	166392
#	189485
#	215385
#	238800
#	260285
#	279329
#
# Disc length: 4037 seconds
#
# Revision: 0
# Processed by: cddbd v1.5.1PL2 Copyright (c) Steve Scherf et al.
# Submitted via: CDex 1.51
#
DISCID=bb0fc30e
DTITLE=move　 他 - INITIAL D BEST SONG COLLECTION 1998−2004　( Disc．1 )
DYEAR=1900
DGENRE=Anime
TTITLE0=around the world
TTITLE1=Rage your dream
TTITLE2=ROCK IT DOWN
TTITLE3=over drive
TTITLE4=See you，my best love
TTITLE5=奇蹟の薔薇
TTITLE6=BREAK IN2 THE NITE
TTITLE7=Wanna fly to be wind
TTITLE8=past days 〜追憶
TTITLE9=Bust the Future Wall (move into the rodkin’beat)
TTITLE10=take me higher
TTITLE11=キミがいる
TTITLE12=LOVE INJECTION (EXTENDED MIX 〜F．O．)
TTITLE13=Blazin’Beat
EXTD=
EXTT0=
EXTT1=
EXTT2=
EXTT3=
EXTT4=
EXTT5=
EXTT6=
EXTT7=
EXTT8=
EXTT9=
EXTT10=
EXTT11=
EXTT12=
EXTT13=
PLAYORDER=
